<svg xmlns="http://www.w3.org/2000/svg" viewBox="0 0 128.16 109.47"><defs><style>.cls-1{fill:#fff;}.cls-2{fill:#c9e0b6;}</style></defs><g id="Layer_2" data-name="Layer 2"><g id="Layer_1-2" data-name="Layer 1"><path class="cls-1" d="M82.77,21.36A10.68,10.68,0,1,0,72.09,10.68,10.72,10.72,0,0,0,82.77,21.36Z"/><path class="cls-1" d="M26.7,56.07a26.68,26.68,0,1,0,26.7,26.7A26.77,26.77,0,0,0,26.7,56.07Zm0,45.39A18.54,18.54,0,0,1,9.26,89.55,18.77,18.77,0,0,1,8,82.77a18.69,18.69,0,0,1,37.38,0,18.77,18.77,0,0,1-1.25,6.78A18.55,18.55,0,0,1,26.7,101.46Z"/><path class="cls-1" d="M101.19,39.78V50.46c-11,0-20.29-4-27-11l-4-4L57.67,48.33,69.42,60.07V93.45H58.74V66.75l-16.83-15a12,12,0,0,1-3.2-7.75,10.74,10.74,0,0,1,3.2-7.47L56.6,21.89a9.72,9.72,0,0,1,7.48-3.2,9.61,9.61,0,0,1,7.2,3.2L81.7,32A27,27,0,0,0,101.19,39.78Z"/><path class="cls-1" d="M101.46,56.07a26.68,26.68,0,1,0,26.7,26.7A26.77,26.77,0,0,0,101.46,56.07Zm0,45.39A18.54,18.54,0,0,1,84,89.55a18.77,18.77,0,0,1-1.25-6.78,18.69,18.69,0,0,1,37.38,0,18.77,18.77,0,0,1-1.25,6.78A18.55,18.55,0,0,1,101.46,101.46Z"/><path class="cls-2" d="M52.52,89.55a26.69,26.69,0,0,1-51.64,0H9.26a18.72,18.72,0,0,0,34.88,0Z"/><rect class="cls-2" x="58.74" y="89.55" width="10.68" height="3.9"/><path class="cls-2" d="M127.28,89.55a26.69,26.69,0,0,1-51.64,0H84a18.72,18.72,0,0,0,34.88,0Z"/></g></g></svg>