<?xml version="1.0" encoding="utf-8"?>
<!-- Generator: Adobe Illustrator 25.0.1, SVG Export Plug-In . SVG Version: 6.00 Build 0)  -->
<svg version="1.1" id="Laag_1" xmlns="http://www.w3.org/2000/svg" xmlns:xlink="http://www.w3.org/1999/xlink" x="0px" y="0px"
	 viewBox="0 0 1138.9 318.5" style="enable-background:new 0 0 1138.9 318.5;" xml:space="preserve">
<style type="text/css">
	.st0{fill:#FFFFFF;}
	.st1{font-family:'ArialMT';}
	.st2{font-size:32.71px;}
	.st3{fill:#C9E0B6;}
	.st4{fill:none;stroke:#FFFFFF;stroke-width:2;stroke-miterlimit:10;}
</style>
<text transform="matrix(1 0 0 1 369.018 250.99)" class="st0 st1 st2">10</text>
<text transform="matrix(1 0 0 1 448.208 250.63)" class="st0 st1 st2">20</text>
<text transform="matrix(1 0 0 1 527.408 250.63)" class="st0 st1 st2">30</text>
<text transform="matrix(1 0 0 1 606.598 250.63)" class="st0 st1 st2">40</text>
<text transform="matrix(1 0 0 1 844.188 250.99)" class="st0 st1 st2">70</text>
<text transform="matrix(1 0 0 1 923.378 250.63)" class="st0 st1 st2">80</text>
<text transform="matrix(1 0 0 1 1002.5779 250.63)" class="st0 st1 st2">90</text>
<text transform="matrix(1 0 0 1 1073.3781 250.63)" class="st0 st1 st2">100</text>
<text transform="matrix(1 0 0 1 685.7979 250.63)" class="st0 st1 st2">50</text>
<text transform="matrix(1 0 0 1 764.988 250.63)" class="st0 st1 st2">60</text>
<rect x="315.6" y="121.3" class="st3" width="282" height="53.3"/>
<rect x="315.6" y="26.5" class="st3" width="432.4" height="53.3"/>
<line class="st4" x1="315.6" y1="0" x2="315.6" y2="199.6"/>
<g>
	<path class="st0" d="M149,43.4h-2.6V33h-11.6v10.4h-2.6V21.3h2.6v9.4h11.6v-9.4h2.6V43.4z"/>
	<path class="st0" d="M164.9,43.4l-0.5-2.4h-0.1c-0.8,1-1.6,1.7-2.5,2.1c-0.8,0.4-1.8,0.6-3.1,0.6c-1.6,0-2.9-0.4-3.9-1.3
		c-0.9-0.8-1.4-2-1.4-3.6c0-3.3,2.7-5.1,8-5.3l2.8-0.1v-1c0-1.3-0.3-2.3-0.8-2.9c-0.6-0.6-1.5-0.9-2.7-0.9c-1.4,0-2.9,0.4-4.7,1.3
		l-0.8-1.9c0.8-0.4,1.7-0.8,2.7-1c1-0.3,1.9-0.4,2.9-0.4c2,0,3.4,0.4,4.4,1.3c1,0.9,1.4,2.3,1.4,4.2v11.3H164.9z M159.2,41.6
		c1.6,0,2.8-0.4,3.7-1.3c0.9-0.9,1.3-2.1,1.3-3.6v-1.5l-2.5,0.1c-2,0.1-3.4,0.4-4.3,0.9c-0.9,0.5-1.3,1.4-1.3,2.6
		c0,0.9,0.3,1.6,0.8,2.1C157.5,41.4,158.2,41.6,159.2,41.6z"/>
	<path class="st0" d="M179.5,26.5c0.7,0,1.4,0.1,2,0.2l-0.3,2.3c-0.7-0.2-1.3-0.2-1.8-0.2c-1.3,0-2.5,0.5-3.4,1.6
		c-1,1.1-1.4,2.4-1.4,4.1v8.9h-2.5V26.8h2.1l0.3,3.1h0.1c0.6-1.1,1.4-1.9,2.2-2.5C177.5,26.8,178.4,26.5,179.5,26.5z"/>
	<path class="st0" d="M195.8,41.2h-0.1c-1.2,1.7-2.9,2.5-5.2,2.5c-2.2,0-3.9-0.7-5.1-2.2c-1.2-1.5-1.8-3.6-1.8-6.3s0.6-4.9,1.8-6.4
		c1.2-1.5,2.9-2.3,5-2.3c2.2,0,4,0.8,5.2,2.4h0.2l-0.1-1.2l-0.1-1.2v-6.7h2.5v23.5h-2L195.8,41.2z M190.8,41.6c1.7,0,3-0.5,3.7-1.4
		s1.2-2.4,1.2-4.5v-0.5c0-2.3-0.4-4-1.2-5c-0.8-1-2-1.5-3.7-1.5c-1.5,0-2.6,0.6-3.4,1.7c-0.8,1.1-1.2,2.8-1.2,4.8
		c0,2.1,0.4,3.7,1.2,4.8C188.1,41,189.3,41.6,190.8,41.6z"/>
	<path class="st0" d="M206,43.4h-2.5V19.9h2.5V43.4z"/>
	<path class="st0" d="M225.6,35.1c0,2.7-0.7,4.8-2,6.3c-1.4,1.5-3.2,2.3-5.6,2.3c-1.5,0-2.8-0.3-3.9-1c-1.1-0.7-2-1.7-2.7-3
		s-0.9-2.8-0.9-4.6c0-2.7,0.7-4.8,2-6.3s3.2-2.3,5.6-2.3c2.3,0,4.2,0.8,5.5,2.3S225.6,32.5,225.6,35.1z M213,35.1
		c0,2.1,0.4,3.7,1.3,4.8s2.1,1.7,3.7,1.7s2.9-0.6,3.7-1.7c0.9-1.1,1.3-2.7,1.3-4.8c0-2.1-0.4-3.7-1.3-4.8c-0.9-1.1-2.1-1.6-3.8-1.6
		c-1.6,0-2.9,0.5-3.7,1.6S213,33,213,35.1z"/>
	<path class="st0" d="M237.7,43.7c-1.1,0-2.1-0.2-3-0.6c-0.9-0.4-1.6-1-2.2-1.8h-0.2c0.1,1,0.2,1.9,0.2,2.7v6.8H230v-24h2l0.3,2.3
		h0.1c0.6-0.9,1.4-1.6,2.3-2s1.8-0.6,2.9-0.6c2.2,0,3.9,0.8,5.1,2.3s1.8,3.6,1.8,6.3c0,2.7-0.6,4.8-1.8,6.3
		C241.6,42.9,239.9,43.7,237.7,43.7z M237.4,28.7c-1.7,0-2.9,0.5-3.7,1.4c-0.8,0.9-1.1,2.4-1.2,4.5v0.6c0,2.3,0.4,4,1.2,5
		s2,1.5,3.7,1.5c1.4,0,2.6-0.6,3.4-1.7c0.8-1.2,1.2-2.8,1.2-4.8c0-2.1-0.4-3.6-1.2-4.8C240,29.2,238.8,28.7,237.4,28.7z"/>
	<path class="st0" d="M256,43.7c-2.4,0-4.4-0.7-5.8-2.2c-1.4-1.5-2.1-3.6-2.1-6.2c0-2.7,0.7-4.8,2-6.4c1.3-1.6,3.1-2.4,5.3-2.4
		c2.1,0,3.7,0.7,4.9,2c1.2,1.4,1.8,3.2,1.8,5.4v1.6h-11.4c0.1,1.9,0.5,3.4,1.5,4.4c0.9,1,2.2,1.5,3.9,1.5c1.8,0,3.5-0.4,5.3-1.1v2.2
		c-0.9,0.4-1.7,0.7-2.5,0.8C258,43.6,257.1,43.7,256,43.7z M255.3,28.6c-1.3,0-2.4,0.4-3.2,1.3s-1.3,2.1-1.4,3.6h8.7
		c0-1.6-0.4-2.8-1.1-3.6C257.6,29,256.6,28.6,255.3,28.6z"/>
	<path class="st0" d="M273.9,26.5c0.7,0,1.4,0.1,2,0.2l-0.3,2.3c-0.7-0.2-1.3-0.2-1.8-0.2c-1.3,0-2.5,0.5-3.4,1.6
		c-1,1.1-1.4,2.4-1.4,4.1v8.9h-2.5V26.8h2.1l0.3,3.1h0.1c0.6-1.1,1.4-1.9,2.2-2.5C271.9,26.8,272.8,26.5,273.9,26.5z"/>
	<path class="st0" d="M289.6,38.9c0,1.5-0.6,2.7-1.7,3.6s-2.8,1.3-4.8,1.3c-2.2,0-3.9-0.3-5.1-1v-2.3c0.8,0.4,1.6,0.7,2.6,1
		c0.9,0.2,1.8,0.3,2.6,0.3c1.3,0,2.3-0.2,3-0.6c0.7-0.4,1.1-1.1,1.1-1.9c0-0.6-0.3-1.2-0.8-1.7c-0.6-0.5-1.6-1-3.3-1.6
		c-1.5-0.6-2.6-1.1-3.3-1.5c-0.6-0.4-1.1-0.9-1.5-1.5c-0.3-0.5-0.5-1.2-0.5-1.9c0-1.3,0.5-2.4,1.6-3.2c1.1-0.8,2.6-1.2,4.5-1.2
		c1.8,0,3.5,0.4,5.2,1.1l-0.9,2c-1.7-0.7-3.2-1-4.5-1c-1.2,0-2.1,0.2-2.7,0.6s-0.9,0.9-0.9,1.5c0,0.4,0.1,0.8,0.3,1.1
		c0.2,0.3,0.6,0.6,1.1,0.9c0.5,0.3,1.5,0.7,2.9,1.2c2,0.7,3.3,1.4,4,2.2C289.3,36.9,289.6,37.8,289.6,38.9z"/>
	<path class="st0" d="M118.1,80.5L111.8,64h2.7l3.6,9.8c0.8,2.3,1.3,3.8,1.4,4.5h0.1c0.1-0.5,0.5-1.6,1.1-3.3s1.9-5.3,4-11h2.7
		L121,80.5H118.1z"/>
	<path class="st0" d="M144.2,72.2c0,2.7-0.7,4.8-2,6.3c-1.4,1.5-3.2,2.3-5.6,2.3c-1.5,0-2.8-0.3-3.9-1c-1.1-0.7-2-1.7-2.7-3
		c-0.6-1.3-0.9-2.8-0.9-4.6c0-2.7,0.7-4.8,2-6.3s3.2-2.3,5.6-2.3c2.3,0,4.2,0.8,5.5,2.3C143.6,67.5,144.2,69.6,144.2,72.2z
		 M131.6,72.2c0,2.1,0.4,3.7,1.3,4.8s2.1,1.7,3.7,1.7c1.6,0,2.9-0.6,3.7-1.7s1.3-2.7,1.3-4.8c0-2.1-0.4-3.7-1.3-4.8
		c-0.9-1.1-2.1-1.6-3.8-1.6c-1.6,0-2.9,0.5-3.7,1.6S131.6,70.1,131.6,72.2z"/>
	<path class="st0" d="M162.9,72.2c0,2.7-0.7,4.8-2,6.3c-1.4,1.5-3.2,2.3-5.6,2.3c-1.5,0-2.8-0.3-3.9-1c-1.1-0.7-2-1.7-2.7-3
		c-0.6-1.3-0.9-2.8-0.9-4.6c0-2.7,0.7-4.8,2-6.3c1.3-1.5,3.2-2.3,5.6-2.3c2.3,0,4.2,0.8,5.5,2.3C162.2,67.5,162.9,69.6,162.9,72.2z
		 M150.3,72.2c0,2.1,0.4,3.7,1.3,4.8c0.8,1.1,2.1,1.7,3.7,1.7s2.9-0.6,3.7-1.7s1.3-2.7,1.3-4.8c0-2.1-0.4-3.7-1.3-4.8
		c-0.9-1.1-2.1-1.6-3.8-1.6c-1.6,0-2.9,0.5-3.7,1.6S150.3,70.1,150.3,72.2z"/>
	<path class="st0" d="M174.9,63.7c0.7,0,1.4,0.1,2,0.2l-0.3,2.3c-0.7-0.2-1.3-0.2-1.8-0.2c-1.3,0-2.5,0.5-3.4,1.6
		c-1,1.1-1.4,2.4-1.4,4.1v8.9h-2.5V64h2.1l0.3,3.1h0.1c0.6-1.1,1.4-1.9,2.2-2.5C172.9,63.9,173.8,63.7,174.9,63.7z"/>
	<path class="st0" d="M197.8,60.4c-2.4,0-4.3,0.8-5.7,2.4s-2.1,3.8-2.1,6.6c0,2.9,0.7,5.1,2,6.7s3.3,2.4,5.8,2.4
		c1.5,0,3.3-0.3,5.3-0.8V80c-1.5,0.6-3.4,0.9-5.7,0.9c-3.3,0-5.8-1-7.5-3c-1.8-2-2.7-4.8-2.7-8.4c0-2.3,0.4-4.3,1.3-6s2.1-3,3.7-4
		c1.6-0.9,3.5-1.4,5.7-1.4c2.3,0,4.3,0.4,6.1,1.3l-1.1,2.2C201.2,60.8,199.5,60.4,197.8,60.4z"/>
	<path class="st0" d="M221.8,72.2c0,2.7-0.7,4.8-2,6.3c-1.4,1.5-3.2,2.3-5.6,2.3c-1.5,0-2.8-0.3-3.9-1c-1.1-0.7-2-1.7-2.7-3
		c-0.6-1.3-0.9-2.8-0.9-4.6c0-2.7,0.7-4.8,2-6.3s3.2-2.3,5.6-2.3c2.3,0,4.2,0.8,5.5,2.3C221.1,67.5,221.8,69.6,221.8,72.2z
		 M209.2,72.2c0,2.1,0.4,3.7,1.3,4.8s2.1,1.7,3.7,1.7s2.9-0.6,3.7-1.7s1.3-2.7,1.3-4.8c0-2.1-0.4-3.7-1.3-4.8
		c-0.9-1.1-2.1-1.6-3.8-1.6c-1.6,0-2.9,0.5-3.7,1.6C209.6,68.5,209.2,70.1,209.2,72.2z"/>
	<path class="st0" d="M233.8,63.7c0.7,0,1.4,0.1,2,0.2l-0.3,2.3c-0.7-0.2-1.3-0.2-1.8-0.2c-1.3,0-2.5,0.5-3.4,1.6
		c-1,1.1-1.4,2.4-1.4,4.1v8.9h-2.5V64h2.1l0.3,3.1h0.1c0.6-1.1,1.4-1.9,2.2-2.5C231.8,63.9,232.7,63.7,233.8,63.7z"/>
	<path class="st0" d="M253.1,72.2c0,2.7-0.7,4.8-2,6.3c-1.4,1.5-3.2,2.3-5.6,2.3c-1.5,0-2.8-0.3-3.9-1c-1.1-0.7-2-1.7-2.7-3
		c-0.6-1.3-0.9-2.8-0.9-4.6c0-2.7,0.7-4.8,2-6.3s3.2-2.3,5.6-2.3c2.3,0,4.2,0.8,5.5,2.3C252.4,67.5,253.1,69.6,253.1,72.2z
		 M240.5,72.2c0,2.1,0.4,3.7,1.3,4.8c0.8,1.1,2.1,1.7,3.7,1.7s2.9-0.6,3.7-1.7s1.3-2.7,1.3-4.8c0-2.1-0.4-3.7-1.3-4.8
		c-0.9-1.1-2.1-1.6-3.8-1.6c-1.6,0-2.9,0.5-3.7,1.6C240.9,68.5,240.5,70.1,240.5,72.2z"/>
	<path class="st0" d="M268.9,80.5V69.8c0-1.3-0.3-2.4-0.9-3c-0.6-0.7-1.6-1-2.9-1c-1.7,0-3,0.5-3.8,1.4c-0.8,0.9-1.2,2.5-1.2,4.6
		v8.7h-2.5V64h2l0.4,2.3h0.1c0.5-0.8,1.2-1.4,2.2-1.9c0.9-0.4,2-0.7,3.1-0.7c2,0,3.5,0.5,4.5,1.4s1.5,2.5,1.5,4.6v10.8H268.9z"/>
	<path class="st0" d="M286.7,80.5l-0.5-2.4h-0.1c-0.8,1-1.6,1.7-2.5,2.1c-0.8,0.4-1.8,0.6-3.1,0.6c-1.6,0-2.9-0.4-3.9-1.3
		c-0.9-0.8-1.4-2-1.4-3.6c0-3.3,2.7-5.1,8-5.3l2.8-0.1v-1c0-1.3-0.3-2.3-0.8-2.9c-0.6-0.6-1.5-0.9-2.7-0.9c-1.4,0-2.9,0.4-4.7,1.3
		l-0.8-1.9c0.8-0.4,1.7-0.8,2.7-1c1-0.3,1.9-0.4,2.9-0.4c2,0,3.4,0.4,4.4,1.3c1,0.9,1.4,2.3,1.4,4.2v11.3H286.7z M281,78.8
		c1.6,0,2.8-0.4,3.7-1.3s1.3-2.1,1.3-3.6v-1.5l-2.5,0.1c-2,0.1-3.4,0.4-4.3,0.9c-0.9,0.5-1.3,1.4-1.3,2.6c0,0.9,0.3,1.6,0.8,2.1
		C279.3,78.5,280,78.8,281,78.8z"/>
</g>
<g>
	<path class="st0" d="M33.8,138.6h-3l-12.5-19.2h-0.1c0.2,2.3,0.3,4.3,0.3,6.2v13h-2.5v-22.9h3l12.5,19.1h0.1c0-0.3-0.1-1.2-0.1-2.7
		s-0.1-2.6-0.1-3.3v-13.1h2.5V138.6z"/>
	<path class="st0" d="M39.4,116.8c0-0.6,0.1-1,0.4-1.3c0.3-0.3,0.7-0.4,1.1-0.4c0.4,0,0.8,0.1,1.1,0.4c0.3,0.3,0.5,0.7,0.5,1.3
		c0,0.6-0.2,1-0.5,1.3c-0.3,0.3-0.7,0.4-1.1,0.4c-0.4,0-0.8-0.1-1.1-0.4C39.6,117.8,39.4,117.4,39.4,116.8z M42.3,138.6h-2.6v-17.2
		h2.6V138.6z"/>
	<path class="st0" d="M55,138.9c-2.5,0-4.5-0.8-6-2.3c-1.5-1.5-2.2-3.7-2.2-6.4c0-2.8,0.7-5,2-6.6c1.4-1.6,3.2-2.4,5.5-2.4
		c2.1,0,3.9,0.7,5.1,2.1c1.3,1.4,1.9,3.3,1.9,5.6v1.6H49.5c0.1,2,0.6,3.5,1.5,4.6s2.3,1.6,4.1,1.6c1.8,0,3.7-0.4,5.5-1.2v2.3
		c-0.9,0.4-1.8,0.7-2.6,0.9C57.2,138.8,56.2,138.9,55,138.9z M54.3,123.3c-1.4,0-2.5,0.4-3.3,1.3s-1.3,2.1-1.4,3.7h9
		c0-1.6-0.4-2.9-1.1-3.8C56.7,123.7,55.7,123.3,54.3,123.3z"/>
	<path class="st0" d="M68.2,121.4v11.1c0,1.4,0.3,2.4,1,3.1c0.6,0.7,1.6,1,3,1c1.8,0,3.1-0.5,3.9-1.5c0.8-1,1.2-2.6,1.2-4.8v-9h2.6
		v17.2h-2.1l-0.4-2.3h-0.1c-0.5,0.8-1.3,1.5-2.2,1.9s-2,0.7-3.2,0.7c-2.1,0-3.7-0.5-4.7-1.5s-1.6-2.6-1.6-4.8v-11.2H68.2z"/>
	<path class="st0" d="M99.4,138.6l-3.1-10.1c-0.2-0.6-0.6-2-1.1-4.2h-0.1c-0.4,1.8-0.8,3.2-1.1,4.2l-3.2,10h-3L83,121.4h2.7
		c1.1,4.3,1.9,7.6,2.5,9.8c0.6,2.3,0.9,3.8,1,4.6h0.1c0.1-0.6,0.3-1.4,0.6-2.3s0.5-1.7,0.7-2.2l3.1-9.8h2.8l3.1,9.8
		c0.6,1.8,1,3.3,1.2,4.5h0.1c0-0.4,0.2-1,0.3-1.7c0.2-0.8,1.3-5,3.3-12.6h2.7l-4.7,17.2H99.4z"/>
	<path class="st0" d="M117.6,138.9c-2.5,0-4.5-0.8-6-2.3c-1.5-1.5-2.2-3.7-2.2-6.4c0-2.8,0.7-5,2-6.6c1.4-1.6,3.2-2.4,5.5-2.4
		c2.1,0,3.9,0.7,5.1,2.1c1.3,1.4,1.9,3.3,1.9,5.6v1.6h-11.8c0.1,2,0.6,3.5,1.5,4.6s2.3,1.6,4.1,1.6c1.8,0,3.7-0.4,5.5-1.2v2.3
		c-0.9,0.4-1.8,0.7-2.6,0.9C119.8,138.8,118.8,138.9,117.6,138.9z M116.9,123.3c-1.4,0-2.5,0.4-3.3,1.3c-0.8,0.9-1.3,2.1-1.4,3.7h9
		c0-1.6-0.4-2.9-1.1-3.8S118.3,123.3,116.9,123.3z"/>
	<path class="st0" d="M148.4,138.6v-11.1c0-1.4-0.3-2.4-1-3.1c-0.6-0.7-1.6-1-3-1c-1.8,0-3.1,0.5-4,1.5c-0.8,1-1.2,2.6-1.2,4.8v9
		h-2.6v-24.4h2.6v7.4c0,0.9,0,1.6-0.1,2.2h0.2c0.5-0.8,1.2-1.5,2.2-1.9s2-0.7,3.2-0.7c2.1,0,3.7,0.5,4.7,1.5c1,1,1.6,2.6,1.6,4.8
		v11.2H148.4z"/>
	<path class="st0" d="M166.9,138.6l-0.5-2.4h-0.1c-0.9,1.1-1.7,1.8-2.6,2.2c-0.9,0.4-1.9,0.6-3.2,0.6c-1.7,0-3-0.4-4-1.3
		c-1-0.9-1.4-2.1-1.4-3.7c0-3.5,2.8-5.3,8.3-5.4l2.9-0.1v-1.1c0-1.3-0.3-2.3-0.9-3c-0.6-0.6-1.5-1-2.8-1c-1.4,0-3,0.4-4.9,1.3
		l-0.8-2c0.8-0.5,1.8-0.8,2.8-1.1s2-0.4,3-0.4c2,0,3.6,0.5,4.5,1.4s1.5,2.4,1.5,4.4v11.7H166.9z M161,136.8c1.6,0,2.9-0.4,3.8-1.3
		s1.4-2.1,1.4-3.7v-1.5l-2.6,0.1c-2.1,0.1-3.6,0.4-4.5,1s-1.4,1.5-1.4,2.7c0,0.9,0.3,1.7,0.9,2.1C159.2,136.5,160,136.8,161,136.8z"
		/>
	<path class="st0" d="M182,121.1c0.8,0,1.4,0.1,2.1,0.2l-0.4,2.4c-0.7-0.2-1.3-0.2-1.9-0.2c-1.4,0-2.6,0.6-3.6,1.7s-1.5,2.5-1.5,4.2
		v9.2h-2.6v-17.2h2.1l0.3,3.2h0.1c0.6-1.1,1.4-2,2.3-2.6C180,121.4,180.9,121.1,182,121.1z"/>
	<path class="st0" d="M199,136.3h-0.1c-1.2,1.7-3,2.6-5.4,2.6c-2.2,0-4-0.8-5.2-2.3c-1.2-1.5-1.9-3.7-1.9-6.5c0-2.8,0.6-5,1.9-6.6
		c1.3-1.6,3-2.3,5.2-2.3c2.3,0,4.1,0.8,5.4,2.5h0.2l-0.1-1.2l-0.1-1.2v-7h2.6v24.4h-2.1L199,136.3z M193.8,136.7
		c1.8,0,3.1-0.5,3.9-1.4c0.8-1,1.2-2.5,1.2-4.7v-0.5c0-2.4-0.4-4.2-1.2-5.2c-0.8-1-2.1-1.6-3.9-1.6c-1.5,0-2.7,0.6-3.5,1.8
		c-0.8,1.2-1.2,2.9-1.2,5c0,2.2,0.4,3.8,1.2,5C191,136.2,192.2,136.7,193.8,136.7z"/>
	<path class="st0" d="M209.5,138.6h-2.6v-24.4h2.6V138.6z"/>
	<path class="st0" d="M229.9,130c0,2.8-0.7,5-2.1,6.6c-1.4,1.6-3.4,2.4-5.8,2.4c-1.5,0-2.9-0.4-4.1-1.1c-1.2-0.7-2.1-1.8-2.8-3.1
		c-0.6-1.3-1-2.9-1-4.7c0-2.8,0.7-5,2.1-6.5s3.3-2.3,5.8-2.3c2.4,0,4.3,0.8,5.7,2.4S229.9,127.3,229.9,130z M216.8,130
		c0,2.2,0.4,3.9,1.3,5s2.2,1.7,3.9,1.7c1.7,0,3-0.6,3.9-1.7c0.9-1.1,1.3-2.8,1.3-5c0-2.2-0.4-3.8-1.3-5c-0.9-1.1-2.2-1.7-3.9-1.7
		c-1.7,0-3,0.6-3.9,1.7C217.2,126.1,216.8,127.8,216.8,130z"/>
	<path class="st0" d="M242.4,138.9c-1.1,0-2.1-0.2-3.1-0.6s-1.7-1-2.3-1.9h-0.2c0.1,1,0.2,2,0.2,2.8v7.1h-2.6v-24.9h2.1l0.4,2.3h0.1
		c0.7-0.9,1.4-1.6,2.3-2c0.9-0.4,1.9-0.6,3.1-0.6c2.3,0,4,0.8,5.3,2.3c1.2,1.6,1.9,3.7,1.9,6.5c0,2.8-0.6,5-1.9,6.6
		C246.4,138.1,244.6,138.9,242.4,138.9z M242,123.3c-1.8,0-3,0.5-3.8,1.5c-0.8,1-1.2,2.5-1.2,4.6v0.6c0,2.4,0.4,4.1,1.2,5.2
		c0.8,1,2.1,1.6,3.9,1.6c1.5,0,2.6-0.6,3.5-1.8c0.8-1.2,1.3-2.9,1.3-5c0-2.1-0.4-3.8-1.3-4.9C244.7,123.9,243.5,123.3,242,123.3z"/>
	<path class="st0" d="M261.3,138.9c-2.5,0-4.5-0.8-6-2.3c-1.5-1.5-2.2-3.7-2.2-6.4c0-2.8,0.7-5,2-6.6c1.4-1.6,3.2-2.4,5.5-2.4
		c2.1,0,3.9,0.7,5.1,2.1c1.3,1.4,1.9,3.3,1.9,5.6v1.6h-11.8c0.1,2,0.6,3.5,1.5,4.6s2.3,1.6,4.1,1.6c1.8,0,3.7-0.4,5.5-1.2v2.3
		c-0.9,0.4-1.8,0.7-2.6,0.9C263.4,138.8,262.5,138.9,261.3,138.9z M260.6,123.3c-1.4,0-2.5,0.4-3.3,1.3s-1.3,2.1-1.4,3.7h9
		c0-1.6-0.4-2.9-1.1-3.8C263,123.7,262,123.3,260.6,123.3z"/>
	<path class="st0" d="M279.9,121.1c0.8,0,1.4,0.1,2.1,0.2l-0.4,2.4c-0.7-0.2-1.3-0.2-1.9-0.2c-1.4,0-2.6,0.6-3.6,1.7
		s-1.5,2.5-1.5,4.2v9.2H272v-17.2h2.1l0.3,3.2h0.1c0.6-1.1,1.4-2,2.3-2.6C277.8,121.4,278.8,121.1,279.9,121.1z"/>
	<path class="st0" d="M296.2,133.9c0,1.6-0.6,2.8-1.8,3.7c-1.2,0.9-2.9,1.3-5,1.3c-2.3,0-4-0.4-5.3-1.1v-2.4c0.8,0.4,1.7,0.7,2.7,1
		c0.9,0.2,1.9,0.4,2.7,0.4c1.4,0,2.4-0.2,3.1-0.6s1.1-1.1,1.1-2c0-0.7-0.3-1.2-0.9-1.7s-1.7-1-3.4-1.7c-1.6-0.6-2.7-1.1-3.4-1.6
		c-0.7-0.4-1.2-0.9-1.5-1.5s-0.5-1.2-0.5-2c0-1.4,0.6-2.5,1.7-3.3c1.1-0.8,2.7-1.2,4.7-1.2c1.8,0,3.7,0.4,5.4,1.1l-0.9,2.1
		c-1.7-0.7-3.3-1.1-4.7-1.1c-1.2,0-2.2,0.2-2.8,0.6c-0.6,0.4-0.9,0.9-0.9,1.6c0,0.5,0.1,0.9,0.4,1.2c0.2,0.3,0.6,0.6,1.1,0.9
		c0.5,0.3,1.5,0.7,3,1.3c2,0.7,3.4,1.5,4.1,2.2C295.8,131.8,296.2,132.8,296.2,133.9z"/>
	<path class="st0" d="M87.9,175.2c0.5,0,0.9,0,1.3-0.1s0.8-0.1,1-0.2v2c-0.3,0.1-0.7,0.2-1.2,0.3s-1,0.1-1.5,0.1c-3.3,0-5-1.7-5-5.2
		v-10.2h-2.5v-1.3l2.5-1.1l1.1-3.7h1.5v4h5v2h-5V172c0,1,0.2,1.8,0.7,2.4S87.1,175.2,87.9,175.2z"/>
	<path class="st0" d="M93.5,155.3c0-0.6,0.1-1,0.4-1.3c0.3-0.3,0.7-0.4,1.1-0.4c0.4,0,0.8,0.1,1.1,0.4c0.3,0.3,0.5,0.7,0.5,1.3
		s-0.2,1-0.5,1.3c-0.3,0.3-0.7,0.4-1.1,0.4c-0.4,0-0.8-0.1-1.1-0.4C93.6,156.3,93.5,155.9,93.5,155.3z M96.3,177.1h-2.6v-17.2h2.6
		V177.1z"/>
	<path class="st0" d="M99.7,184.8c-1,0-1.8-0.1-2.4-0.4v-2.1c0.7,0.2,1.4,0.3,2.1,0.3c0.8,0,1.4-0.2,1.8-0.7s0.6-1.1,0.6-2v-20h2.6
		v19.8C104.4,183.1,102.9,184.8,99.7,184.8z M101.6,155.3c0-0.6,0.1-1,0.4-1.3c0.3-0.3,0.7-0.4,1.1-0.4c0.4,0,0.8,0.1,1.1,0.4
		c0.3,0.3,0.5,0.7,0.5,1.3s-0.2,1-0.5,1.3c-0.3,0.3-0.7,0.4-1.1,0.4c-0.4,0-0.8-0.1-1.1-0.4C101.8,156.3,101.6,155.9,101.6,155.3z"
		/>
	<path class="st0" d="M121.6,174.8h-0.1c-1.2,1.7-3,2.6-5.4,2.6c-2.2,0-4-0.8-5.2-2.3s-1.9-3.7-1.9-6.5s0.6-5,1.9-6.6
		c1.3-1.6,3-2.3,5.2-2.3c2.3,0,4.1,0.8,5.4,2.5h0.2l-0.1-1.2l-0.1-1.2v-7h2.6v24.4H122L121.6,174.8z M116.4,175.2
		c1.8,0,3.1-0.5,3.9-1.4s1.2-2.5,1.2-4.7v-0.5c0-2.4-0.4-4.2-1.2-5.2c-0.8-1-2.1-1.6-3.9-1.6c-1.5,0-2.7,0.6-3.5,1.8
		c-0.8,1.2-1.2,2.9-1.2,5c0,2.2,0.4,3.8,1.2,5C113.7,174.7,114.9,175.2,116.4,175.2z"/>
	<path class="st0" d="M136.8,177.4c-2.5,0-4.5-0.8-6-2.3c-1.5-1.5-2.2-3.7-2.2-6.4c0-2.8,0.7-5,2-6.6c1.4-1.6,3.2-2.4,5.5-2.4
		c2.1,0,3.9,0.7,5.1,2.1c1.3,1.4,1.9,3.3,1.9,5.6v1.6h-11.8c0.1,2,0.6,3.5,1.5,4.6s2.3,1.6,4.1,1.6c1.8,0,3.7-0.4,5.5-1.2v2.3
		c-0.9,0.4-1.8,0.7-2.6,0.9C139,177.3,138,177.4,136.8,177.4z M136.1,161.8c-1.4,0-2.5,0.4-3.3,1.3c-0.8,0.9-1.3,2.1-1.4,3.7h9
		c0-1.6-0.4-2.9-1.1-3.8C138.5,162.2,137.5,161.8,136.1,161.8z"/>
	<path class="st0" d="M159.3,177.1V166c0-1.4-0.3-2.4-1-3.1c-0.6-0.7-1.6-1-3-1c-1.8,0-3.1,0.5-3.9,1.5s-1.3,2.6-1.3,4.8v9h-2.6
		v-17.2h2.1l0.4,2.3h0.1c0.5-0.8,1.3-1.5,2.2-2s2-0.7,3.2-0.7c2.1,0,3.6,0.5,4.7,1.5c1,1,1.6,2.6,1.6,4.8v11.2H159.3z"/>
	<path class="st0" d="M178.3,172.4c0,1.6-0.6,2.8-1.8,3.7c-1.2,0.9-2.9,1.3-5,1.3c-2.3,0-4-0.4-5.3-1.1v-2.4c0.8,0.4,1.7,0.7,2.7,1
		c0.9,0.2,1.9,0.4,2.7,0.4c1.4,0,2.4-0.2,3.1-0.6c0.7-0.4,1.1-1.1,1.1-2c0-0.7-0.3-1.2-0.9-1.7s-1.7-1-3.4-1.7
		c-1.6-0.6-2.7-1.1-3.4-1.6c-0.7-0.4-1.2-0.9-1.5-1.5c-0.3-0.6-0.5-1.2-0.5-2c0-1.4,0.6-2.5,1.7-3.3c1.1-0.8,2.7-1.2,4.7-1.2
		c1.8,0,3.7,0.4,5.4,1.1l-0.9,2.1c-1.7-0.7-3.3-1.1-4.7-1.1c-1.2,0-2.2,0.2-2.8,0.6c-0.6,0.4-0.9,0.9-0.9,1.6c0,0.5,0.1,0.9,0.4,1.2
		c0.2,0.3,0.6,0.6,1.1,0.9s1.5,0.7,3,1.3c2,0.7,3.4,1.5,4.1,2.2C178,170.3,178.3,171.3,178.3,172.4z"/>
	<path class="st0" d="M201.1,156.2c-2.5,0-4.5,0.8-6,2.5c-1.5,1.7-2.2,4-2.2,6.9c0,3,0.7,5.3,2.1,6.9c1.4,1.6,3.4,2.5,6,2.5
		c1.6,0,3.4-0.3,5.5-0.9v2.3c-1.6,0.6-3.5,0.9-5.9,0.9c-3.4,0-6-1-7.8-3.1c-1.8-2-2.7-5-2.7-8.7c0-2.4,0.4-4.4,1.3-6.2
		s2.2-3.1,3.8-4.1c1.7-1,3.6-1.4,5.9-1.4c2.4,0,4.5,0.4,6.3,1.3l-1.1,2.3C204.5,156.6,202.8,156.2,201.1,156.2z"/>
	<path class="st0" d="M225.9,168.5c0,2.8-0.7,5-2.1,6.6s-3.4,2.4-5.8,2.4c-1.5,0-2.9-0.4-4.1-1.1c-1.2-0.7-2.1-1.8-2.8-3.1
		s-1-2.9-1-4.7c0-2.8,0.7-5,2.1-6.5c1.4-1.6,3.3-2.3,5.8-2.3c2.4,0,4.3,0.8,5.7,2.4C225.2,163.6,225.9,165.8,225.9,168.5z
		 M212.8,168.5c0,2.2,0.4,3.9,1.3,5c0.9,1.1,2.2,1.7,3.9,1.7c1.7,0,3-0.6,3.9-1.7c0.9-1.1,1.3-2.8,1.3-5c0-2.2-0.4-3.8-1.3-5
		c-0.9-1.1-2.2-1.7-3.9-1.7c-1.7,0-3,0.6-3.9,1.7C213.3,164.6,212.8,166.3,212.8,168.5z"/>
	<path class="st0" d="M238.3,159.6c0.8,0,1.4,0.1,2.1,0.2l-0.4,2.4c-0.7-0.2-1.3-0.2-1.9-0.2c-1.4,0-2.6,0.6-3.6,1.7
		s-1.5,2.5-1.5,4.2v9.2h-2.6v-17.2h2.1l0.3,3.2h0.1c0.6-1.1,1.4-2,2.3-2.6C236.2,159.9,237.2,159.6,238.3,159.6z"/>
	<path class="st0" d="M258.4,168.5c0,2.8-0.7,5-2.1,6.6c-1.4,1.6-3.4,2.4-5.8,2.4c-1.5,0-2.9-0.4-4.1-1.1c-1.2-0.7-2.1-1.8-2.8-3.1
		s-1-2.9-1-4.7c0-2.8,0.7-5,2.1-6.5c1.4-1.6,3.3-2.3,5.8-2.3c2.4,0,4.3,0.8,5.7,2.4C257.7,163.6,258.4,165.8,258.4,168.5z
		 M245.3,168.5c0,2.2,0.4,3.9,1.3,5c0.9,1.1,2.2,1.7,3.9,1.7c1.7,0,3-0.6,3.9-1.7c0.9-1.1,1.3-2.8,1.3-5c0-2.2-0.4-3.8-1.3-5
		c-0.9-1.1-2.2-1.7-3.9-1.7c-1.7,0-3,0.6-3.9,1.7C245.7,164.6,245.3,166.3,245.3,168.5z"/>
	<path class="st0" d="M274.7,177.1V166c0-1.4-0.3-2.4-1-3.1c-0.6-0.7-1.6-1-3-1c-1.8,0-3.1,0.5-3.9,1.5s-1.3,2.6-1.3,4.8v9h-2.6
		v-17.2h2.1l0.4,2.3h0.1c0.5-0.8,1.3-1.5,2.2-2s2-0.7,3.2-0.7c2.1,0,3.6,0.5,4.7,1.5c1,1,1.6,2.6,1.6,4.8v11.2H274.7z"/>
	<path class="st0" d="M293.1,177.1l-0.5-2.4h-0.1c-0.9,1.1-1.7,1.8-2.6,2.2s-1.9,0.6-3.2,0.6c-1.7,0-3-0.4-4-1.3s-1.4-2.1-1.4-3.7
		c0-3.5,2.8-5.3,8.3-5.4l2.9-0.1v-1.1c0-1.3-0.3-2.3-0.9-3c-0.6-0.6-1.5-1-2.8-1c-1.4,0-3,0.4-4.9,1.3l-0.8-2
		c0.8-0.5,1.8-0.8,2.8-1.1c1-0.3,2-0.4,3-0.4c2,0,3.6,0.5,4.5,1.4s1.5,2.4,1.5,4.4v11.7H293.1z M287.3,175.2c1.6,0,2.9-0.4,3.8-1.3
		s1.4-2.1,1.4-3.7v-1.5l-2.6,0.1c-2.1,0.1-3.6,0.4-4.5,1s-1.4,1.5-1.4,2.7c0,0.9,0.3,1.7,0.9,2.1C285.5,175,286.3,175.2,287.3,175.2
		z"/>
</g>
<g>
	<path class="st0" d="M560.7,310.7v-23.2h2.7v23.2H560.7z"/>
	<path class="st0" d="M581.3,310.7v-11.2c0-1.4-0.3-2.5-1-3.2c-0.6-0.7-1.7-1-3-1c-1.8,0-3.2,0.5-4,1.5s-1.3,2.6-1.3,4.9v9.1h-2.6
		v-17.4h2.1l0.4,2.4h0.1c0.5-0.9,1.3-1.5,2.3-2s2.1-0.7,3.3-0.7c2.1,0,3.7,0.5,4.7,1.5c1.1,1,1.6,2.6,1.6,4.8v11.3H581.3z"/>
	<path class="st0" d="M605.8,311c-1.1,0-2.2-0.2-3.1-0.6c-0.9-0.4-1.7-1.1-2.4-1.9h-0.2c0.1,1,0.2,2,0.2,2.9v7.2h-2.6v-25.2h2.1
		l0.4,2.4h0.1c0.7-1,1.5-1.6,2.4-2.1s1.9-0.6,3.1-0.6c2.3,0,4.1,0.8,5.3,2.4c1.3,1.6,1.9,3.8,1.9,6.6c0,2.9-0.6,5.1-1.9,6.7
		C609.9,310.2,608.1,311,605.8,311z M605.4,295.3c-1.8,0-3.1,0.5-3.9,1.5c-0.8,1-1.2,2.5-1.2,4.7v0.6c0,2.4,0.4,4.2,1.2,5.2
		s2.1,1.6,3.9,1.6c1.5,0,2.7-0.6,3.5-1.8c0.9-1.2,1.3-2.9,1.3-5c0-2.2-0.4-3.8-1.3-5C608.2,295.8,607,295.3,605.4,295.3z"/>
	<path class="st0" d="M625,311c-2.6,0-4.6-0.8-6.1-2.3c-1.5-1.6-2.2-3.7-2.2-6.5c0-2.8,0.7-5,2.1-6.7c1.4-1.6,3.2-2.5,5.6-2.5
		c2.2,0,3.9,0.7,5.2,2.1c1.3,1.4,1.9,3.3,1.9,5.7v1.7h-12c0.1,2,0.6,3.6,1.5,4.6c1,1.1,2.4,1.6,4.1,1.6c1.9,0,3.7-0.4,5.6-1.2v2.3
		c-0.9,0.4-1.8,0.7-2.6,0.9S626.2,311,625,311z M624.3,295.2c-1.4,0-2.5,0.5-3.3,1.4c-0.8,0.9-1.3,2.2-1.5,3.8h9.1
		c0-1.7-0.4-2.9-1.1-3.8C626.7,295.7,625.6,295.2,624.3,295.2z"/>
	<path class="st0" d="M643.8,293c0.8,0,1.5,0.1,2.1,0.2l-0.4,2.4c-0.7-0.2-1.4-0.2-1.9-0.2c-1.4,0-2.6,0.6-3.6,1.7
		c-1,1.1-1.5,2.6-1.5,4.3v9.3h-2.6v-17.4h2.2l0.3,3.2h0.1c0.6-1.1,1.4-2,2.3-2.6C641.7,293.3,642.7,293,643.8,293z"/>
	<path class="st0" d="M656.1,311c-2.5,0-4.5-0.8-5.8-2.3c-1.4-1.5-2.1-3.7-2.1-6.6c0-2.9,0.7-5.2,2.1-6.7c1.4-1.6,3.4-2.4,6-2.4
		c0.8,0,1.7,0.1,2.5,0.3c0.8,0.2,1.5,0.4,2,0.6l-0.8,2.2c-0.6-0.2-1.2-0.4-1.9-0.6c-0.7-0.2-1.3-0.2-1.8-0.2c-3.5,0-5.3,2.3-5.3,6.8
		c0,2.1,0.4,3.8,1.3,4.9c0.9,1.1,2.1,1.7,3.8,1.7c1.4,0,2.9-0.3,4.5-0.9v2.3C659.3,310.7,657.8,311,656.1,311z"/>
	<path class="st0" d="M671.9,311c-2.6,0-4.6-0.8-6.1-2.3c-1.5-1.6-2.2-3.7-2.2-6.5c0-2.8,0.7-5,2.1-6.7c1.4-1.6,3.2-2.5,5.6-2.5
		c2.2,0,3.9,0.7,5.2,2.1c1.3,1.4,1.9,3.3,1.9,5.7v1.7h-12c0.1,2,0.6,3.6,1.5,4.6c1,1.1,2.4,1.6,4.1,1.6c1.9,0,3.7-0.4,5.6-1.2v2.3
		c-0.9,0.4-1.8,0.7-2.6,0.9S673.1,311,671.9,311z M671.2,295.2c-1.4,0-2.5,0.5-3.3,1.4c-0.8,0.9-1.3,2.2-1.5,3.8h9.1
		c0-1.7-0.4-2.9-1.1-3.8C673.7,295.7,672.6,295.2,671.2,295.2z"/>
	<path class="st0" d="M694.7,310.7v-11.2c0-1.4-0.3-2.5-1-3.2c-0.6-0.7-1.7-1-3-1c-1.8,0-3.2,0.5-4,1.5s-1.3,2.6-1.3,4.9v9.1h-2.6
		v-17.4h2.1l0.4,2.4h0.1c0.5-0.9,1.3-1.5,2.3-2c1-0.5,2.1-0.7,3.3-0.7c2.1,0,3.7,0.5,4.7,1.5c1.1,1,1.6,2.6,1.6,4.8v11.3H694.7z"/>
	<path class="st0" d="M708.4,308.9c0.5,0,0.9,0,1.3-0.1c0.4-0.1,0.8-0.1,1-0.2v2c-0.3,0.1-0.7,0.3-1.3,0.3c-0.6,0.1-1.1,0.1-1.5,0.1
		c-3.4,0-5-1.8-5-5.3v-10.3h-2.5v-1.3l2.5-1.1l1.1-3.7h1.5v4h5v2h-5v10.2c0,1,0.2,1.9,0.7,2.4C706.8,308.6,707.5,308.9,708.4,308.9z
		"/>
	<path class="st0" d="M724.9,310.7l-0.5-2.5h-0.1c-0.9,1.1-1.7,1.8-2.6,2.2c-0.9,0.4-1.9,0.6-3.2,0.6c-1.7,0-3.1-0.4-4.1-1.3
		c-1-0.9-1.5-2.2-1.5-3.8c0-3.5,2.8-5.4,8.4-5.5l3-0.1v-1.1c0-1.4-0.3-2.4-0.9-3c-0.6-0.7-1.5-1-2.8-1c-1.4,0-3.1,0.4-4.9,1.3
		l-0.8-2c0.9-0.5,1.8-0.8,2.8-1.1c1-0.3,2-0.4,3.1-0.4c2.1,0,3.6,0.5,4.6,1.4s1.5,2.4,1.5,4.4v11.9H724.9z M719,308.9
		c1.6,0,2.9-0.4,3.9-1.3s1.4-2.2,1.4-3.8v-1.6l-2.6,0.1c-2.1,0.1-3.6,0.4-4.5,1s-1.4,1.5-1.4,2.7c0,1,0.3,1.7,0.9,2.2
		S717.9,308.9,719,308.9z"/>
	<path class="st0" d="M746.5,293.3v1.7l-3.2,0.4c0.3,0.4,0.6,0.9,0.8,1.5c0.2,0.6,0.3,1.3,0.3,2c0,1.7-0.6,3.1-1.7,4.1
		c-1.2,1-2.8,1.5-4.8,1.5c-0.5,0-1,0-1.5-0.1c-1.1,0.6-1.7,1.3-1.7,2.2c0,0.5,0.2,0.8,0.6,1.1s1.1,0.3,2,0.3h3.1
		c1.9,0,3.3,0.4,4.3,1.2s1.5,1.9,1.5,3.5c0,1.9-0.8,3.4-2.3,4.4c-1.5,1-3.8,1.5-6.8,1.5c-2.3,0-4-0.4-5.3-1.3
		c-1.2-0.8-1.8-2-1.8-3.6c0-1.1,0.3-2,1-2.7c0.7-0.8,1.6-1.3,2.9-1.6c-0.4-0.2-0.8-0.5-1.1-0.9c-0.3-0.4-0.5-0.9-0.5-1.5
		c0-0.6,0.2-1.2,0.5-1.7s0.9-0.9,1.6-1.4c-0.9-0.4-1.6-1-2.2-1.9s-0.8-1.9-0.8-3c0-1.9,0.6-3.4,1.7-4.4s2.8-1.5,4.9-1.5
		c0.9,0,1.7,0.1,2.5,0.3H746.5z M732.7,313.6c0,0.9,0.4,1.7,1.2,2.1c0.8,0.5,1.9,0.7,3.4,0.7c2.2,0,3.8-0.3,4.9-1s1.6-1.6,1.6-2.7
		c0-0.9-0.3-1.6-0.9-2c-0.6-0.4-1.7-0.5-3.3-0.5h-3.2c-1.2,0-2.1,0.3-2.8,0.9S732.7,312.6,732.7,313.6z M734.1,298.9
		c0,1.2,0.3,2.1,1,2.8c0.7,0.6,1.6,0.9,2.9,0.9c2.6,0,3.9-1.2,3.9-3.7c0-2.6-1.3-3.9-3.9-3.9c-1.2,0-2.2,0.3-2.9,1
		C734.4,296.6,734.1,297.6,734.1,298.9z"/>
	<path class="st0" d="M757.4,311c-2.6,0-4.6-0.8-6.1-2.3c-1.5-1.6-2.2-3.7-2.2-6.5c0-2.8,0.7-5,2.1-6.7s3.2-2.5,5.6-2.5
		c2.2,0,3.9,0.7,5.2,2.1c1.3,1.4,1.9,3.3,1.9,5.7v1.7h-12c0.1,2,0.6,3.6,1.5,4.6c1,1.1,2.4,1.6,4.1,1.6c1.9,0,3.7-0.4,5.6-1.2v2.3
		c-0.9,0.4-1.8,0.7-2.6,0.9S758.6,311,757.4,311z M756.7,295.2c-1.4,0-2.5,0.5-3.3,1.4c-0.8,0.9-1.3,2.2-1.5,3.8h9.1
		c0-1.7-0.4-2.9-1.1-3.8C759.1,295.7,758.1,295.2,756.7,295.2z"/>
	<path class="st0" d="M779.5,306c0,1.6-0.6,2.9-1.8,3.7c-1.2,0.9-2.9,1.3-5.1,1.3c-2.3,0-4.1-0.4-5.4-1.1v-2.4
		c0.8,0.4,1.7,0.8,2.7,1c1,0.2,1.9,0.4,2.8,0.4c1.4,0,2.4-0.2,3.2-0.7c0.7-0.4,1.1-1.1,1.1-2c0-0.7-0.3-1.3-0.9-1.7
		c-0.6-0.5-1.7-1-3.4-1.7c-1.6-0.6-2.8-1.1-3.4-1.6c-0.7-0.4-1.2-1-1.5-1.5c-0.3-0.6-0.5-1.3-0.5-2c0-1.4,0.6-2.5,1.7-3.4
		s2.7-1.2,4.7-1.2c1.9,0,3.7,0.4,5.5,1.1l-0.9,2.1c-1.7-0.7-3.3-1.1-4.7-1.1c-1.2,0-2.2,0.2-2.8,0.6c-0.6,0.4-1,0.9-1,1.6
		c0,0.5,0.1,0.9,0.4,1.2s0.6,0.6,1.1,0.9c0.5,0.3,1.5,0.7,3,1.3c2.1,0.8,3.5,1.5,4.2,2.3C779.2,303.9,779.5,304.8,779.5,306z"/>
</g>
</svg>
