<svg xmlns="http://www.w3.org/2000/svg" viewBox="0 0 83.11 110.98"><defs><style>.cls-1{fill:#fff;}.cls-2{fill:#c9e0b6;}</style></defs><g id="Layer_2" data-name="Layer 2"><g id="Layer_1-2" data-name="Layer 1"><path class="cls-1" d="M54.72,20.65A10.33,10.33,0,1,0,44.4,10.32,10.36,10.36,0,0,0,54.72,20.65Z"/><path class="cls-1" d="M55,45.94l-3.1,15.49L62.47,72v39H52.14V80l-.88-.82L41,69.69l-2,9.5L36.14,92.4C36.14,92.14,0,85.17,0,85.17l1.23-6,.84-4.08,21.06,4.08,4.23.82.16-.82,7.84-40.73-9,3.61V59.36H16V35.1L43.11,24A10.47,10.47,0,0,1,47,23.23a10,10,0,0,1,8.77,4.9l4.91,8.26A26.44,26.44,0,0,0,83.11,49V59.36A36,36,0,0,1,55,45.94Z"/><path class="cls-2" d="M39,79.19,36.14,92.4C36.14,92.14,0,85.17,0,85.17l1.23-6Z"/><polygon class="cls-2" points="62.47 79.19 62.47 110.98 52.14 110.98 52.14 80.01 51.26 79.19 62.47 79.19"/></g></g></svg>