<svg xmlns="http://www.w3.org/2000/svg" viewBox="0 0 696.98 540.75"><defs><style>.cls-1,.cls-2,.cls-3,.cls-6{fill:none;stroke-linecap:round;stroke-linejoin:round;stroke-width:7px;}.cls-1{stroke:#92c959;}.cls-1,.cls-2,.cls-3,.cls-4{opacity:0.5;}.cls-2{stroke:#b6d992;}.cls-3{stroke:#9dce6e;}.cls-5{fill:#fff;}.cls-6{stroke:#c9e0b6;}</style></defs><g id="Layer_2" data-name="Layer 2"><g id="Layer_1-2" data-name="Layer 1"><path id="Path_1" data-name="Path 1" class="cls-1" d="M155.22,294.81c-6.17,10.37-9.66,7.64-14.43,15s-6.95,16-9,24.54c-1.4,5.65-2.8,11.45-2.09,17.22,1.49,12.08,11.74,21.13,22.18,27.38,9.78,5.84,20.54,10.38,31.87,11.57s23.29-1.19,32.39-8c8.94-6.72,14.43-17,22.26-25,11.62-11.87,28.37-12.3,43.95-22.07"/><path id="Path_2" data-name="Path 2" class="cls-1" d="M21.77,142c1.47-7.22,9.82-10.82,17.18-11.2s14.93,1.21,22-.86c9.26-2.72,15.78-11.15,24.68-14.87,8.4-3.51,17.89-2.46,27-2.74,12.68-.38,23.34-2.92,36.31-9a4.57,4.57,0,0,1,5.17.87c1.65,1.62,2.89,3.25,5.63,2.53l68.18-17.92q23.4-6.15,46.8-12.25,127.23-33,255.52-61.75a20.49,20.49,0,0,0,8.75-4,3.6,3.6,0,0,0-2-6.26c-22.92-2.87-46.24.91-69.1,4.69-72.6,12-145.27,24-216.84,41.07-2.72.64-6.19.93-8.3-.43a6.21,6.21,0,0,0-5.5-.44c-25,9-53.42,6.06-78.45,15.39-13.7,5.11-26.43,13.9-41,14.84-5.39.34-10.77-.41-16.12-1.1A653.91,653.91,0,0,0,11,73.21a8.19,8.19,0,0,0-6,2.52c-2.9,3.16-.9,6.36-.15,9.54,1.16,5-.73,10-1,15.12-.94,16.91,15.48,30.23,17.61,47,.87,6.78-.66,13.9,1.53,20.39,2.25,6.67,8.14,11.67,10.22,18.4,4.33,14-9.19,30.52,7.49,42.3a28.46,28.46,0,0,0,14.44,5c7.94.57,16.48,1.73,24.35-.55,13.72-4,22.38-17.17,34.12-25.31,19.7-13.66,49.17-10.72,65.77,6.58"/><path id="Path_4" data-name="Path 4" class="cls-2" d="M409.26,253.74c-7.3,7.47-16.49,15.6-26.74,13.56-6.93-1.37-12-7.08-16.69-12.4a598.89,598.89,0,0,0-46.65-47.48C305.43,222,308.72,245.08,304,264.56c-2.54,10.56-7.65,20.55-8.56,31.38,9.83-.82,18.75,5.84,25.2,13.31s11.64,16.22,19.54,22.14c11.13,8.36,27.53,11.23,33.39,23.85,5.42,11.67-1.72,25.7-11.63,33.9S339.65,402,329.34,409.66a4.81,4.81,0,0,0-2,2.42c-.35,1.32.41,2.65,1.15,3.8l9.22,14.47c4.52,7.09,9.28,14.42,16.45,18.81s15.94,5.3,24.34,6.1l26.86-71.37a35.45,35.45,0,0,1,4.33-8.9,58.78,58.78,0,0,1,4.78-5.2c8.95-9.51,13.13-22.49,20.5-33.27,10.45-15.29,26.83-25.49,43.57-33.43s34.37-14.11,50.23-23.68,30.22-23.28,35.69-41c1-3.32,1.72-6.9.77-10.23-1.5-5.24-6.86-8.68-12.27-9.36s-10.84.91-15.92,2.87c-19.83,7.64-38.56,21.5-59.77,20.16-2-9.16-8.78-16.41-15.29-23.16-2.06-2.14-4.26-4.36-7.12-5.2-9.18-2.66-15.7,9.36-20.93,14.95C425.87,237.06,417.46,245.32,409.26,253.74Z"/><path id="Path_5" data-name="Path 5" class="cls-3" d="M525,153.25c-21.55-1.57-42.45,6.74-62.45,14.9-10.49,4.28-21.1,8.63-30.12,15.49-17.18,13.07-26.73,33.77-41.91,49.12s-37.16,27.93-38.6,49.33c-.16,2.4,0,4.9-1,7.1-1.22,2.81-3.94,4.62-6.53,6.28L283,334.76a5.9,5.9,0,0,0-2.4,6.88c15.6,44.93,7.16,99.06,36.78,136.23,16.49,20.69,42,31.95,67.33,39.6,4.82,1.46,9.7,2.83,14.16,5.16,3.84,2,7.28,4.7,11,6.93a54.12,54.12,0,0,0,27.34,7.69,6,6,0,0,0,5.23-3.07,94.49,94.49,0,0,0,6.27-78.52c-1.39-3.71-3-7.41-3.32-11.37s.77-7.7,1.81-11.44l15.73-56.51c2.18-7.84,4.78-16.31,11.44-21,3.69-2.6,8.2-3.7,12.58-4.75l35.1-8.36a6,6,0,0,0,4.52-6.24c-.59-8.94,4.56-18.09,11.92-23.56,8.73-6.48,19.88-8.72,30.71-9.7,9.29-.84,18.75-.88,27.82,1.28,6.26,1.49,12.41,4,18.84,3.78a16.17,16.17,0,0,0,11.49-5.29,6,6,0,0,0-.6-8.1c-14.57-14-16.5-39.67-3.41-55.26,12.36-14.74,35.95-17.83,52.24-8.07a5.9,5.9,0,0,0,8.11-2,5.54,5.54,0,0,0,.49-1,155.35,155.35,0,0,0,8.5-68.65,5.94,5.94,0,0,0-6.57-5.21l-.35,0c-17.72,2.9-69.64.28-76.8-.3-12.22-1-23.32,1.89-35.33,3.54C556.78,159.85,541.57,154.46,525,153.25Z"/><g id="Group_25" data-name="Group 25" class="cls-4"><g id="Group_17" data-name="Group 17"><g id="Group_16" data-name="Group 16"><path id="Path_19" data-name="Path 19" class="cls-5" d="M485.27,194.41a3.26,3.26,0,1,0-3.26-3.26A3.26,3.26,0,0,0,485.27,194.41Z"/><path id="Path_20" data-name="Path 20" class="cls-5" d="M494.23,206.63v-3.26a8.36,8.36,0,0,1-7.09-4l-1.54-2.61a3.22,3.22,0,0,0-4-1.3l-8.55,3.5v7.66h3.26v-5.46l2.85-1.23-4.48,23h3.42l2.85-13,3.5,3.26v9.78h3.26v-12.3l-3.34-3.34,1-4.89A11.35,11.35,0,0,0,494.23,206.63Z"/></g></g></g><g id="Group_32" data-name="Group 32"><g id="Group_17-2" data-name="Group 17-2"><g id="Group_16-2" data-name="Group 16-2"><path id="Path_19-2" data-name="Path 19-2" class="cls-5" d="M241.27,135.41a3.26,3.26,0,1,0-3.26-3.26A3.26,3.26,0,0,0,241.27,135.41Z"/><path id="Path_20-2" data-name="Path 20-2" class="cls-5" d="M250.23,147.63v-3.26a8.36,8.36,0,0,1-7.09-4l-1.54-2.61a3.22,3.22,0,0,0-4-1.3l-8.55,3.5v7.66h3.26v-5.46l2.85-1.23-4.48,23h3.42l2.85-13,3.5,3.26v9.78h3.26v-12.3l-3.34-3.34,1-4.89A11.35,11.35,0,0,0,250.23,147.63Z"/></g></g></g><g id="Group_27" data-name="Group 27" class="cls-4"><g id="Group_20" data-name="Group 20"><g id="Group_19" data-name="Group 19"><path id="Path_21" data-name="Path 21" class="cls-5" d="M515.62,194.41a3.26,3.26,0,1,0-3.26-3.26A3.26,3.26,0,0,0,515.62,194.41Z"/><path id="Path_22" data-name="Path 22" class="cls-5" d="M524.59,206.63v-3.26a8.34,8.34,0,0,1-7.09-4L516,196.77a3.21,3.21,0,0,0-4-1.3L503.4,199v7.66h3.26v-5.46l2.85-1.14L507,213.14l-8-1.54-.65,3.17s11.41,2.2,11.41,2.29l1.55-7.17,3.5,3.25v9.78h3.25v-12.3l-3.34-3.34,1-4.89A11.38,11.38,0,0,0,524.59,206.63Z"/></g></g></g><g id="Group_30" data-name="Group 30" class="cls-4"><g id="Group_20-2" data-name="Group 20-2"><g id="Group_19-2" data-name="Group 19-2"><path id="Path_21-2" data-name="Path 21-2" class="cls-5" d="M638.62,114.41a3.26,3.26,0,1,0-3.26-3.26A3.26,3.26,0,0,0,638.62,114.41Z"/><path id="Path_22-2" data-name="Path 22-2" class="cls-5" d="M647.59,126.63v-3.26a8.34,8.34,0,0,1-7.09-4L639,116.77a3.21,3.21,0,0,0-4-1.3L626.4,119v7.66h3.26v-5.46l2.85-1.14L630,133.14l-8-1.54-.65,3.17s11.41,2.2,11.41,2.29l1.55-7.17,3.5,3.25v9.78h3.25v-12.3l-3.34-3.34,1-4.89A11.38,11.38,0,0,0,647.59,126.63Z"/></g></g></g><g id="Group_31" data-name="Group 31" class="cls-4"><g id="Group_23" data-name="Group 23"><g id="Group_22" data-name="Group 22"><path id="Path_23" data-name="Path 23" class="cls-5" d="M29.51,33.72a3.42,3.42,0,1,0-3.42-3.41A3.42,3.42,0,0,0,29.51,33.72Z"/><path id="Path_24" data-name="Path 24" class="cls-5" d="M11.57,44.83a8.55,8.55,0,1,0,8.54,8.55h0A8.58,8.58,0,0,0,11.57,44.83Zm0,14.53a6,6,0,1,1,6-6h0a6,6,0,0,1-5.91,6Z"/><path id="Path_25" data-name="Path 25" class="cls-5" d="M35.41,43V39.62a8.61,8.61,0,0,1-6.24-2.48L25.84,33.9a3.2,3.2,0,0,0-4.53-.17l-.17.17-4.7,4.7a3.38,3.38,0,0,0-1,2.39,3.79,3.79,0,0,0,1,2.48l5.38,4.78V56.8h3.42V46.12l-3.76-3.76,4-4.1,1.29,1.28A11.69,11.69,0,0,0,35.41,43Z"/><path id="Path_26" data-name="Path 26" class="cls-5" d="M35.49,44.83A8.55,8.55,0,1,0,44,53.38h0A8.58,8.58,0,0,0,35.49,44.83Zm0,14.53a6,6,0,1,1,6-6h0a6,6,0,0,1-5.91,6Z"/></g></g></g><g id="Group_29" data-name="Group 29" class="cls-4"><g id="Group_23-2" data-name="Group 23-2"><g id="Group_22-2" data-name="Group 22-2"><path id="Path_23-2" data-name="Path 23-2" class="cls-5" d="M678.51,114.72a3.42,3.42,0,1,0-3.42-3.41A3.42,3.42,0,0,0,678.51,114.72Z"/><path id="Path_24-2" data-name="Path 24-2" class="cls-5" d="M660.57,125.83a8.55,8.55,0,1,0,8.54,8.55h0A8.58,8.58,0,0,0,660.57,125.83Zm0,14.53a6,6,0,1,1,6-6h0a6,6,0,0,1-5.91,6Z"/><path id="Path_25-2" data-name="Path 25-2" class="cls-5" d="M684.41,124v-3.42a8.61,8.61,0,0,1-6.24-2.48l-3.33-3.24a3.2,3.2,0,0,0-4.53-.17l-.17.17-4.7,4.7a3.38,3.38,0,0,0-1,2.39,3.79,3.79,0,0,0,1,2.48l5.38,4.78v8.55h3.42V127.12l-3.76-3.76,4-4.1,1.29,1.28A11.69,11.69,0,0,0,684.41,124Z"/><path id="Path_26-2" data-name="Path 26-2" class="cls-5" d="M684.49,125.83a8.55,8.55,0,1,0,8.55,8.55h0A8.58,8.58,0,0,0,684.49,125.83Zm0,14.53a6,6,0,1,1,6-6h0a6,6,0,0,1-5.91,6Z"/></g></g></g><path id="Path_3" data-name="Path 3" class="cls-6" d="M183.79,208.35c-7.41,10.48-12.38,22.54-15.61,35-1,4-2.08,8.31-5.29,10.87-5,4-13.9,2.47-16.93,8.13-1.75,3.27-.44,7.28.9,10.75L157,299.42c1.51,3.94,3.08,8,5.87,11.14s6.3,5.09,9.87,7a323.36,323.36,0,0,0,51.66,22.12c4.75,1.56,9.89,3.25,12.81,7.31,1,1.35,1.66,2.92,2.9,4,5.26,4.68,14.71-2.62,20.29,1.7,1.1.85,1.87,2.06,3,2.87,2.48,1.76,5.88,1.11,8.83.38,15.19-3.72,31.71-7.27,46-1,6.67,3,12.45,7.91,19.48,9.82,6,1.62,12.59,1,18,3.86,3.37,1.8,5.94,4.79,9.09,6.94,5.82,4,13.15,4.85,20.16,5.61,3.8.41,7.82.79,11.26-.85s5.85-6.1,3.92-9.39c-5.45-2.07-9.09-7.47-10.57-13.11s-1.11-11.58-.75-17.4l3.42-54.56a62.28,62.28,0,0,1-13.5-6.27,126.69,126.69,0,0,1-32.34-27.4c-7.69-9.14-14.18-19.45-23.46-27-4.05-3.27-9.16-7.32-8-12.39.69-2.93,5.2-4.56,3.44-6.47-1.45-1.57-2.68-5.46-4.47-6.64-19.75-13.08-46.76-26-70.73-28.3C220,169.28,196.15,190.85,183.79,208.35Z"/></g></g></svg>