<svg xmlns="http://www.w3.org/2000/svg" viewBox="0 0 67.11 110.98"><defs><style>.cls-1{fill:#fff;}.cls-2{fill:#c9e0b6;}</style></defs><g id="Layer_2" data-name="Layer 2"><g id="Layer_1-2" data-name="Layer 1"><path class="cls-1" d="M38.72,20.65A10.33,10.33,0,1,0,28.39,10.32,10.36,10.36,0,0,0,38.72,20.65Z"/><path class="cls-1" d="M39,45.94,35.88,61.43,46.46,72v39H36.13V80L25,69.69,16,111H5.16l13-66.77,1.17-6-9,3.87V59.36H0V35.1L27.1,24A10.47,10.47,0,0,1,31,23.23a10.06,10.06,0,0,1,8.78,4.9l4.9,8.26A27,27,0,0,0,52,44.21,26,26,0,0,0,67.11,49V59.36A36,36,0,0,1,39,45.94Z"/><rect class="cls-2" y="44.21" width="10.32" height="15.15"/><path class="cls-2" d="M39,45.94,35.88,61.43,46.46,72v39H36.13V80L25,69.69,16,111H5.16l13-66.77H52A26,26,0,0,0,67.11,49V59.36A36,36,0,0,1,39,45.94Z"/></g></g></svg>